<svg width="15" height="14" viewBox="0 0 15 14" fill="none" xmlns="http://www.w3.org/2000/svg">
<g id="vuesax/outline/element-4">
<g id="element-4">
<path id="Vector" d="M12.0325 8.02116H9.67583C8.50333 8.02116 7.9375 7.47866 7.9375 6.35866V2.39199C7.9375 1.27199 8.50917 0.729492 9.67583 0.729492H12.0325C13.205 0.729492 13.7708 1.27199 13.7708 2.39199V6.35866C13.7708 7.47866 13.1992 8.02116 12.0325 8.02116ZM9.67583 1.60449C8.935 1.60449 8.8125 1.80283 8.8125 2.39199V6.35866C8.8125 6.94782 8.935 7.14616 9.67583 7.14616H12.0325C12.7733 7.14616 12.8958 6.94782 12.8958 6.35866V2.39199C12.8958 1.80283 12.7733 1.60449 12.0325 1.60449H9.67583Z" fill="#485466"/>
<path id="Vector_2" d="M12.0325 13.2705H9.67583C8.50333 13.2705 7.9375 12.728 7.9375 11.608V10.558C7.9375 9.43801 8.50917 8.89551 9.67583 8.89551H12.0325C13.205 8.89551 13.7708 9.43801 13.7708 10.558V11.608C13.7708 12.728 13.1992 13.2705 12.0325 13.2705ZM9.67583 9.77051C8.935 9.77051 8.8125 9.96884 8.8125 10.558V11.608C8.8125 12.1972 8.935 12.3955 9.67583 12.3955H12.0325C12.7733 12.3955 12.8958 12.1972 12.8958 11.608V10.558C12.8958 9.96884 12.7733 9.77051 12.0325 9.77051H9.67583Z" fill="#485466"/>
<path id="Vector_3" d="M5.32547 13.2712H2.9688C1.7963 13.2712 1.23047 12.7287 1.23047 11.6087V7.64199C1.23047 6.52199 1.80214 5.97949 2.9688 5.97949H5.32547C6.49797 5.97949 7.0638 6.52199 7.0638 7.64199V11.6087C7.0638 12.7287 6.49214 13.2712 5.32547 13.2712ZM2.9688 6.85449C2.22797 6.85449 2.10547 7.05283 2.10547 7.64199V11.6087C2.10547 12.1978 2.22797 12.3962 2.9688 12.3962H5.32547C6.0663 12.3962 6.1888 12.1978 6.1888 11.6087V7.64199C6.1888 7.05283 6.0663 6.85449 5.32547 6.85449H2.9688Z" fill="#485466"/>
<path id="Vector_4" d="M5.32547 5.10449H2.9688C1.7963 5.10449 1.23047 4.56199 1.23047 3.44199V2.39199C1.23047 1.27199 1.80214 0.729492 2.9688 0.729492H5.32547C6.49797 0.729492 7.0638 1.27199 7.0638 2.39199V3.44199C7.0638 4.56199 6.49214 5.10449 5.32547 5.10449ZM2.9688 1.60449C2.22797 1.60449 2.10547 1.80283 2.10547 2.39199V3.44199C2.10547 4.03116 2.22797 4.22949 2.9688 4.22949H5.32547C6.0663 4.22949 6.1888 4.03116 6.1888 3.44199V2.39199C6.1888 1.80283 6.0663 1.60449 5.32547 1.60449H2.9688Z" fill="#485466"/>
</g>
</g>
</svg>
