<svg width="86" height="86" viewBox="0 0 86 86" fill="none" xmlns="http://www.w3.org/2000/svg">
<g id="airplane">
<g id="vuesax/bold/airplane">
<g id="airplane_2">
<path id="Vector" d="M59.7602 55.1317L55.1105 43.1171L54.0612 40.455C53.922 40.0236 54.0535 39.3978 54.3792 39.0784L59.9148 33.6491C61.6515 31.9458 62.4541 28.6387 61.7242 26.3022C61.4633 25.4933 60.8245 24.8421 60.0209 24.5655C57.7167 23.8085 54.3766 24.5645 52.6399 26.2678L47.1042 31.6971C46.7786 32.0165 46.1503 32.1359 45.7217 31.9883L31.1761 26.0238C29.5879 25.3454 27.2539 25.8245 26.0238 27.031L23.6358 29.3731C22.0981 30.8812 22.4739 32.7842 24.4906 33.6101L37.2874 38.8409C38.2869 39.2448 38.4747 40.1963 37.6968 40.9593L35.6888 42.9287L32.4325 46.1225C32.0164 46.5305 31.1888 46.8809 30.6155 46.8753L22.284 46.8124C21.424 46.8041 20.3786 47.439 19.9587 48.2412L18.2968 51.4684C17.5489 52.8408 18.2311 54.5497 19.7135 55.0478L27.5544 55.8048C28.754 55.906 29.8008 56.9734 29.8787 58.1746L30.4834 66.0288C30.9708 67.5028 32.6481 68.2358 34.0703 67.5508L37.329 65.9518C38.1211 65.5653 38.7943 64.5146 38.8027 63.6546L38.9014 55.3236C38.8892 54.7321 39.2555 53.9114 39.6716 53.5034L44.9359 48.3402C45.7138 47.5772 46.6257 47.7832 47.0459 48.7907L52.0276 61.6865C52.8142 63.7189 54.7095 64.1315 56.2472 62.6233L58.6352 60.2813C59.8653 59.0748 60.3896 56.7504 59.7602 55.1317Z" fill="#38A993"/>
</g>
</g>
</g>
</svg>
